<svg xmlns="http://www.w3.org/2000/svg" width="180.58999999999997" height="35" viewBox="0 0 180.58999999999997 35"><rect class="svg__rect" x="0" y="0" width="107.49" height="35" fill="#3BC4F3"/><rect class="svg__rect" x="105.49" y="0" width="75.1" height="35" fill="#0895C6"/><path class="svg__text" d="M15.78 22L14.31 22L14.31 13.47L15.78 13.47L15.78 22ZM22.27 14.66L19.64 14.66L19.64 13.47L26.40 13.47L26.40 14.66L23.74 14.66L23.74 22L22.27 22L22.27 14.66ZM37.52 22L35.55 13.47L37.02 13.47L38.35 19.88L39.98 13.47L41.22 13.47L42.83 19.89L44.14 13.47L45.61 13.47L43.64 22L42.23 22L40.60 15.77L38.94 22L37.52 22ZM49.41 18.00L49.41 18.00L49.41 17.52Q49.41 16.28 49.86 15.32Q50.30 14.37 51.10 13.86Q51.91 13.35 52.95 13.35Q54.00 13.35 54.80 13.85Q55.61 14.35 56.05 15.29Q56.49 16.23 56.49 17.48L56.49 17.48L56.49 17.96Q56.49 19.21 56.06 20.16Q55.63 21.10 54.82 21.61Q54.01 22.12 52.97 22.12L52.97 22.12Q51.93 22.12 51.12 21.61Q50.31 21.10 49.86 20.17Q49.42 19.23 49.41 18.00ZM50.90 17.46L50.90 17.96Q50.90 19.36 51.44 20.13Q51.99 20.90 52.97 20.90L52.97 20.90Q53.95 20.90 54.48 20.15Q55.01 19.40 55.01 17.96L55.01 17.96L55.01 17.51Q55.01 16.09 54.47 15.34Q53.94 14.58 52.95 14.58L52.95 14.58Q51.99 14.58 51.45 15.33Q50.91 16.09 50.90 17.46L50.90 17.46ZM62.44 22L60.96 22L60.96 13.47L63.96 13.47Q65.43 13.47 66.24 14.13Q67.04 14.79 67.04 16.05L67.04 16.05Q67.04 16.90 66.63 17.48Q66.21 18.06 65.47 18.37L65.47 18.37L67.39 21.92L67.39 22L65.80 22L64.09 18.71L62.44 18.71L62.44 22ZM62.44 14.66L62.44 17.52L63.96 17.52Q64.71 17.52 65.14 17.15Q65.56 16.77 65.56 16.11L65.56 16.11Q65.56 15.43 65.17 15.05Q64.78 14.68 64.00 14.66L64.00 14.66L62.44 14.66ZM72.92 22L71.43 22L71.43 13.47L72.92 13.47L72.92 17.47L73.74 16.46L76.23 13.47L78.03 13.47L74.86 17.25L78.21 22L76.45 22L73.88 18.31L72.92 19.34L72.92 22ZM81.55 19.42L81.55 19.42L83.04 19.42Q83.04 20.15 83.52 20.55Q84.00 20.95 84.89 20.95L84.89 20.95Q85.67 20.95 86.06 20.63Q86.45 20.32 86.45 19.80L86.45 19.80Q86.45 19.24 86.05 18.94Q85.65 18.63 84.62 18.32Q83.59 18.01 82.98 17.63L82.98 17.63Q81.82 16.90 81.82 15.72L81.82 15.72Q81.82 14.69 82.66 14.02Q83.50 13.35 84.84 13.35L84.84 13.35Q85.73 13.35 86.43 13.68Q87.13 14.01 87.52 14.61Q87.92 15.22 87.92 15.96L87.92 15.96L86.45 15.96Q86.45 15.29 86.03 14.91Q85.61 14.54 84.83 14.54L84.83 14.54Q84.10 14.54 83.70 14.85Q83.30 15.16 83.30 15.71L83.30 15.71Q83.30 16.18 83.73 16.50Q84.17 16.81 85.16 17.10Q86.16 17.40 86.76 17.78Q87.37 18.16 87.65 18.65Q87.93 19.13 87.93 19.79L87.93 19.79Q87.93 20.86 87.11 21.49Q86.29 22.12 84.89 22.12L84.89 22.12Q83.97 22.12 83.19 21.77Q82.41 21.43 81.98 20.83Q81.55 20.22 81.55 19.42ZM92.36 21.85Q92.14 21.63 92.14 21.29Q92.14 20.95 92.36 20.73Q92.57 20.50 92.97 20.50L92.97 20.50Q93.37 20.50 93.58 20.73Q93.80 20.95 93.80 21.29L93.80 21.29Q93.80 21.63 93.58 21.84Q93.37 22.06 92.97 22.06L92.97 22.06Q92.59 22.06 92.36 21.85Z" fill="#FFFFFF"/><path class="svg__text" d="M121.76 22L119.03 13.60L121.48 13.60L123.17 18.96L124.95 13.60L127.13 13.60L128.82 19.01L130.59 13.60L132.86 13.60L130.13 22L127.59 22L125.98 16.89L124.30 22L121.76 22ZM139.75 22L137.37 22L137.37 13.60L139.75 13.60L139.75 16.76L142.99 16.76L142.99 13.60L145.36 13.60L145.36 22L142.99 22L142.99 18.72L139.75 18.72L139.75 22ZM152.65 18.95L149.44 13.60L151.95 13.60L153.94 16.94L155.94 13.60L158.24 13.60L155.02 18.99L155.02 22L152.65 22L152.65 18.95ZM163.19 16.17L161.40 15.21Q161.89 14.37 162.79 13.90Q163.69 13.43 164.97 13.43L164.97 13.43Q166.39 13.43 167.26 14.03Q168.13 14.62 168.13 15.69L168.13 15.69Q168.13 16.18 167.97 16.56Q167.80 16.94 167.56 17.20Q167.33 17.45 166.96 17.78L166.96 17.78Q166.55 18.12 166.36 18.37Q166.17 18.61 166.17 18.94L166.17 18.94L164.03 18.94Q164.03 18.34 164.29 17.95Q164.55 17.56 165.06 17.09L165.06 17.09Q165.40 16.77 165.57 16.54Q165.74 16.32 165.74 16.07L165.74 16.07Q165.74 15.72 165.45 15.51Q165.16 15.30 164.69 15.30L164.69 15.30Q164.21 15.30 163.82 15.53Q163.43 15.76 163.19 16.17L163.19 16.17ZM163.74 20.85L163.74 20.85Q163.74 20.31 164.12 19.96Q164.50 19.61 165.09 19.61L165.09 19.61Q165.69 19.61 166.08 19.96Q166.47 20.31 166.47 20.85L166.47 20.85Q166.47 21.37 166.08 21.74Q165.70 22.11 165.09 22.11L165.09 22.11Q164.51 22.11 164.12 21.74Q163.74 21.38 163.74 20.85Z" fill="#FFFFFF" x="118.49"/></svg>